<?xml version="1.0" encoding="UTF-8" standalone="no"?>
<!-- Uploaded to: SVG Repo, www.svgrepo.com, Generator: SVG Repo Mixer Tools -->

<svg
   width="1000"
   height="1000"
   viewBox="0 0 48 48"
   version="1.1"
   enable-background="new 0 0 76.00 76.00"
   xml:space="preserve"
   id="svg4"
   sodipodi:docname="pokeball.svg"
   inkscape:version="1.2.1 (9c6d41e410, 2022-07-14)"
   xmlns:inkscape="http://www.inkscape.org/namespaces/inkscape"
   xmlns:sodipodi="http://sodipodi.sourceforge.net/DTD/sodipodi-0.dtd"
   xmlns="http://www.w3.org/2000/svg"
   xmlns:svg="http://www.w3.org/2000/svg"><defs
   id="defs8" /><sodipodi:namedview
   id="namedview6"
   pagecolor="#ffffff"
   bordercolor="#000000"
   borderopacity="0.25"
   inkscape:showpageshadow="2"
   inkscape:pageopacity="0.0"
   inkscape:pagecheckerboard="0"
   inkscape:deskcolor="#d1d1d1"
   showgrid="false"
   inkscape:zoom="0.4275"
   inkscape:cx="343.85965"
   inkscape:cy="573.09941"
   inkscape:window-width="1920"
   inkscape:window-height="1009"
   inkscape:window-x="-8"
   inkscape:window-y="-8"
   inkscape:window-maximized="1"
   inkscape:current-layer="svg4" />
	<path
   fill="#ffffff"
   fill-opacity="1"
   stroke-width="0.2"
   stroke-linejoin="round"
   d="M 18.162974,8.4731101 C 31.413332,0.57431223 48.558142,4.912618 56.456939,18.162974 64.355738,31.413332 60.017432,48.558142 46.767076,56.456939 33.516718,64.355738 16.371908,60.017432 8.47311,46.767076 0.57431223,33.516718 4.9126179,16.371908 18.162974,8.4731101 Z m 2.979569,4.9982749 C 11.327956,19.322051 7.6896489,31.580458 12.383619,41.726196 l 9.092937,-5.420476 c -1.793887,-5.115147 0.192991,-10.954375 5.029258,-13.837369 4.836264,-2.882991 10.917741,-1.853464 14.564055,2.157411 l 9.092935,-5.420479 C 43.470686,10.25068 30.95713,7.6207158 21.142543,13.471385 Z m -6.375297,32.253382 c 6.692118,8.954604 19.205674,11.584567 29.020261,5.733898 9.814586,-5.850667 13.452894,-18.109073 8.758924,-28.254812 l -9.092862,5.420601 c 1.793812,5.115022 -0.193066,10.95425 -5.029333,13.837245 -4.836265,2.88299 -10.917741,1.853464 -14.56398,-2.157284 z M 28.889513,26.467044 c -3.312653,1.97474 -4.39713,6.260969 -2.422469,9.573493 1.97474,3.312653 6.260842,4.397204 9.573493,2.422469 3.312526,-1.974662 4.397204,-6.260842 2.422469,-9.573493 -1.974662,-3.312527 -6.26097,-4.39713 -9.573493,-2.422469 z"
   id="path2"
   sodipodi:nodetypes="ssssssccsccscsccsccsssss" />
</svg>
